<?xml version="1.0" encoding="UTF-8" standalone="no"?>
<!-- Created with Inkscape (http://www.inkscape.org/) -->

<svg
   xmlns:dc="http://purl.org/dc/elements/1.1/"
   xmlns:cc="http://creativecommons.org/ns#"
   xmlns:rdf="http://www.w3.org/1999/02/22-rdf-syntax-ns#"
   xmlns:svg="http://www.w3.org/2000/svg"
   xmlns="http://www.w3.org/2000/svg"
   xmlns:sodipodi="http://sodipodi.sourceforge.net/DTD/sodipodi-0.dtd"
   xmlns:inkscape="http://www.inkscape.org/namespaces/inkscape"
   width="600"
   height="200"
   viewBox="0 0 600 200"
   id="svg7021"
   version="1.1"
   inkscape:version="0.91 r13725"
   sodipodi:docname="usp-lines-only-400.svg">
  <defs
     id="defs7023" />
  <sodipodi:namedview
     id="base"
     pagecolor="#ffffff"
     bordercolor="#666666"
     borderopacity="1.0"
     inkscape:pageopacity="0.0"
     inkscape:pageshadow="2"
     inkscape:zoom="0.70710678"
     inkscape:cx="485.86476"
     inkscape:cy="86.610213"
     inkscape:document-units="px"
     inkscape:current-layer="layer1"
     showgrid="false"
     units="px"
     fit-margin-top="0"
     fit-margin-left="0"
     fit-margin-right="0"
     fit-margin-bottom="0"
     inkscape:window-width="1440"
     inkscape:window-height="807"
     inkscape:window-x="0"
     inkscape:window-y="1"
     inkscape:window-maximized="1" />
  <metadata
     id="metadata7026">
    <rdf:RDF>
      <cc:Work
         rdf:about="">
        <dc:format>image/svg+xml</dc:format>
        <dc:type
           rdf:resource="http://purl.org/dc/dcmitype/StillImage" />
        <dc:title></dc:title>
      </cc:Work>
    </rdf:RDF>
  </metadata>
  <g
     inkscape:label="Layer 1"
     inkscape:groupmode="layer"
     id="layer1"
     transform="translate(-184.96428,-561.68362)">
    <path
       sodipodi:nodetypes="cccccccccccccccccccccccccccccccccccccccccccccccccccccc"
       inkscape:connector-curvature="0"
       id="path4147"
       d="m 213.33785,676.1978 0,-30.67056 27.93542,24.05549 28.3234,-24.05549 0,30.67056 m 18.23562,-30.28258 21.72755,16.42497 0,15.53893 0,-15.66823 22.5035,-16.29567 m 30.65136,0.25865 0,21.0809 c -0.0654,4.36031 1.27827,7.95224 8.7298,8.21249 l 36.79456,0 c 4.87414,-0.94512 6.02819,-3.682 7.01618,-6.49886 l 0,-22.79453 m 14.06041,29.41899 45.02773,-0.0914 c 7.71818,-0.83635 10.86289,-13.05173 -0.36582,-15.08934 l -40.5126,0.36581 c -8.17335,-3.13113 -5.5673,-12.91933 0,-14.72354 l 46.06507,0 m 14.36157,30.01414 0,-15.01627 46.57048,0 c 10.443,-4.34389 5.45756,-14.70178 0,-15.08933 l -46.54829,0 0,15.36369 m 82.51971,-0.34221 c -5.59283,3.19565 -7.3431,12.61222 2.07201,14.51705 l 40.5126,0 c 11.39416,-6.09479 2.95258,-14.6381 0,-14.90645 l -42.52451,0 c -3.26167,-0.67039 -8.4292,-9.26026 0,-14.35643 l 42.48965,0 c 4.00386,-0.27358 11.46811,9.4844 0,14.09563 m 25.54278,15.32709 39.44585,0 c 4.05237,-0.77598 6.38029,-3.10394 6.98383,-6.98384 l 0,-16.74832 c -0.3405,-2.14168 -1.19236,-5.31854 -6.14319,-6.1432 l -40.48047,0 c -3.37426,0.8302 -5.90626,2.60799 -6.53119,6.5312 l 0,17.8476 c 1.0142,3.0597 3.65873,4.4891 6.72517,5.49656 z m 65.05327,0.12933 40.35117,0 c 5.03848,-1.40095 5.88698,-4.41372 6.66052,-6.66054 l 0,-17.00697 c -0.0704,-2.46075 -1.27419,-5.87911 -6.11086,-6.11086 l -39.86615,0 c -4.60044,0.66567 -7.01233,3.01487 -7.12935,7.12931 l 0,15.72987 c -0.0939,3.46552 1.70996,5.51624 6.09467,6.91919 z"
       style="color:#000000;clip-rule:nonzero;display:inline;overflow:visible;visibility:visible;opacity:1;isolation:auto;mix-blend-mode:normal;color-interpolation:sRGB;color-interpolation-filters:linearRGB;solid-color:#000000;solid-opacity:1;fill:none;fill-opacity:1;fill-rule:evenodd;stroke:#00ffff;stroke-width:5.61872053;stroke-linecap:round;stroke-linejoin:round;stroke-miterlimit:4;stroke-dasharray:none;stroke-dashoffset:0.60000002;stroke-opacity:1;color-rendering:auto;image-rendering:auto;shape-rendering:auto;text-rendering:auto;enable-background:accumulate" />
  </g>
</svg>
